<?xml version="1.0" encoding="UTF-8"?>
<svg xmlns="http://www.w3.org/2000/svg" xmlns:xlink="http://www.w3.org/1999/xlink" width="804pt" height="315pt" viewBox="0 0 804 315" version="1.1">
<defs>
<clipPath id="clip1">
  <path d="M 725 37 L 803.191406 37 L 803.191406 242 L 725 242 Z M 725 37 "/>
</clipPath>
<clipPath id="clip2">
  <path d="M 0 0.886719 L 318 0.886719 L 318 315 L 0 315 Z M 0 0.886719 "/>
</clipPath>
</defs>
<g id="surface1">
<path style="" d="M 354.964844 46.824219 C 360.453125 46.824219 363.414062 44.136719 363.414062 39.1875 L 363.414062 38.972656 C 363.414062 33.539062 360.183594 31.496094 354.964844 31.496094 L 348.402344 31.496094 L 348.402344 46.824219 Z M 343.722656 27.730469 L 354.644531 27.730469 C 362.015625 27.730469 368.09375 30.957031 368.09375 38.972656 L 368.09375 39.1875 C 368.09375 47.363281 361.953125 50.535156 354.644531 50.535156 L 348.402344 50.535156 L 348.402344 66.1875 L 343.722656 66.1875 L 343.722656 27.730469 "/>
<path style="" d="M 393.484375 51.398438 L 386.8125 31.601562 L 380.144531 51.398438 Z M 383.964844 27.730469 L 390.09375 27.730469 L 403.105469 66.1875 L 398.484375 66.1875 L 394.714844 55.109375 L 378.855469 55.109375 L 375.132812 66.1875 L 370.722656 66.1875 L 383.964844 27.730469 "/>
<path style="" d="M 422.953125 45.746094 C 428.441406 45.746094 431.402344 43.382812 431.402344 38.648438 L 431.402344 38.433594 C 431.402344 33.214844 428.171875 31.496094 422.953125 31.496094 L 415.742188 31.496094 L 415.742188 45.746094 Z M 411.074219 27.730469 L 422.632812 27.730469 C 430.003906 27.730469 436.082031 30.742188 436.082031 38.433594 L 436.082031 38.648438 C 436.082031 44.996094 431.832031 48.117188 426.5625 49.136719 L 438.34375 66.1875 L 433.121094 66.1875 L 421.664062 49.460938 L 415.742188 49.460938 L 415.742188 66.1875 L 411.074219 66.1875 L 411.074219 27.730469 "/>
<path style="" d="M 453.132812 31.550781 L 441.941406 31.550781 L 441.941406 27.730469 L 469.003906 27.730469 L 469.003906 31.550781 L 457.8125 31.550781 L 457.8125 66.1875 L 453.132812 66.1875 L 453.132812 31.550781 "/>
<path style="" d="M 477.121094 27.730469 L 481.804688 27.730469 L 481.804688 66.1875 L 477.121094 66.1875 L 477.121094 27.730469 "/>
<path style="" d="M 504.753906 296.394531 C 514.652344 296.394531 519.605469 290.476562 519.605469 281.0625 L 519.605469 280.632812 C 519.605469 271.757812 515.292969 265.519531 504.703125 265.519531 L 499.484375 265.519531 L 499.484375 296.394531 Z M 494.804688 261.753906 L 504.972656 261.753906 C 518.203125 261.753906 524.441406 269.929688 524.441406 280.632812 L 524.441406 281.117188 C 524.441406 291.769531 518.3125 300.214844 504.863281 300.214844 L 494.804688 300.214844 L 494.804688 261.753906 "/>
<path style="" d="M 531.691406 286.171875 L 531.691406 261.753906 L 536.371094 261.753906 L 536.371094 285.636719 C 536.371094 293.703125 539.222656 296.824219 545.621094 296.824219 C 551.753906 296.824219 555.414062 294.347656 555.414062 284.9375 L 555.414062 261.753906 L 560.09375 261.753906 L 560.09375 285.582031 C 560.09375 294.941406 555.414062 300.699219 545.515625 300.699219 C 536.691406 300.699219 531.691406 295.53125 531.691406 286.171875 "/>
<path style="" d="M 583.332031 281.226562 L 583.332031 280.792969 C 583.332031 269.390625 590.964844 261.160156 601.402344 261.160156 C 609.414062 261.160156 616.191406 265.410156 617.003906 273.746094 L 612.371094 273.746094 C 611.402344 267.886719 608.023438 264.871094 601.453125 264.871094 C 593.492188 264.871094 588.171875 271.058594 588.171875 280.742188 L 588.171875 281.167969 C 588.171875 290.960938 593.121094 296.878906 601.402344 296.878906 C 607.691406 296.878906 612.054688 293.703125 613.023438 287.464844 L 617.371094 287.464844 C 616.03125 296.339844 609.902344 300.699219 601.292969 300.699219 C 590.164062 300.699219 583.332031 293.058594 583.332031 281.226562 "/>
<path style="" d="M 644.054688 285.417969 L 637.382812 265.628906 L 630.714844 285.417969 Z M 634.53125 261.753906 L 640.671875 261.753906 L 653.683594 300.214844 L 649.0625 300.214844 L 645.292969 289.132812 L 629.421875 289.132812 L 625.714844 300.214844 L 621.304688 300.214844 L 634.53125 261.753906 "/>
<path style="" d="M 660.621094 261.753906 L 666.703125 261.753906 L 685.421875 293.539062 L 685.421875 261.753906 L 689.882812 261.753906 L 689.882812 300.214844 L 684.503906 300.214844 L 665.082031 267.242188 L 665.082031 300.214844 L 660.621094 300.214844 L 660.621094 261.753906 "/>
<path style="" d="M 719.792969 285.417969 L 713.121094 265.628906 L 706.453125 285.417969 Z M 710.273438 261.753906 L 716.402344 261.753906 L 729.421875 300.214844 L 724.792969 300.214844 L 721.03125 289.132812 L 705.164062 289.132812 L 701.453125 300.214844 L 697.042969 300.214844 L 710.273438 261.753906 "/>
<path style="" d="M 746.523438 296.394531 C 756.421875 296.394531 761.371094 290.476562 761.371094 281.0625 L 761.371094 280.632812 C 761.371094 271.757812 757.0625 265.519531 746.472656 265.519531 L 741.253906 265.519531 L 741.253906 296.394531 Z M 736.574219 261.753906 L 746.742188 261.753906 C 759.972656 261.753906 766.214844 269.929688 766.214844 280.632812 L 766.214844 281.117188 C 766.214844 291.769531 760.082031 300.214844 746.632812 300.214844 L 736.574219 300.214844 L 736.574219 261.753906 "/>
<path style="" d="M 792.191406 285.417969 L 785.523438 265.628906 L 778.855469 285.417969 Z M 782.671875 261.753906 L 788.804688 261.753906 L 801.824219 300.214844 L 797.191406 300.214844 L 793.433594 289.132812 L 777.5625 289.132812 L 773.855469 300.214844 L 769.441406 300.214844 L 782.671875 261.753906 "/>
<path style="" d="M 713.074219 115.042969 C 713.074219 115.042969 713.074219 84.988281 713.074219 84.796875 C 711.632812 84.847656 710.632812 84.886719 709.964844 84.917969 L 709.964844 84.910156 C 693.433594 85.558594 680.621094 90.546875 670.5625 103.851562 L 670.59375 87.101562 L 642.902344 87.101562 L 642.902344 238.871094 L 673.054688 238.871094 L 673.054688 157.886719 C 673.054688 124.085938 684.191406 117.421875 709.28125 115.164062 C 711.394531 115.042969 713.074219 115.042969 713.074219 115.042969 "/>
<path style="" d="M 481.59375 88.839844 L 422.792969 238.851562 L 402.992188 238.851562 L 343.582031 88.839844 L 375.144531 88.839844 L 412.894531 194.625 L 450.773438 88.839844 L 481.59375 88.839844 "/>
<path style="" d="M 554.332031 109.210938 C 579.503906 109.210938 599.234375 127.433594 602.105469 149.769531 L 504.304688 149.769531 C 504.3125 149.621094 504.324219 149.429688 504.355469 149.136719 C 507.84375 127.089844 529.414062 109.210938 554.332031 109.210938 Z M 630.644531 161.171875 C 630.613281 116.566406 595.941406 84.316406 553.644531 84.316406 C 510.121094 84.316406 475.433594 118.699219 475.433594 164.488281 C 475.433594 165.242188 475.433594 165.976562 475.453125 166.703125 C 475.382812 204.324219 504.082031 241.597656 552.464844 241.597656 C 585.355469 241.597656 611.523438 223.386719 623.871094 195.84375 L 592.78125 195.84375 C 584.824219 208.59375 570.472656 216.304688 551.773438 216.304688 C 526.433594 216.304688 504.941406 195.78125 504.582031 175.632812 L 629.734375 175.632812 C 630.34375 169.308594 630.644531 164.488281 630.644531 161.171875 "/>
<g clip-path="url(#clip1)" clip-rule="nonzero">
<path style="" d="M 803.191406 112.886719 L 803.191406 85.90625 L 776.882812 85.90625 L 776.882812 37.15625 L 748.632812 37.15625 L 748.632812 85.90625 L 725.304688 85.90625 L 725.304688 112.886719 L 748.632812 112.886719 C 748.632812 112.886719 748.632812 174.410156 748.632812 188.910156 C 748.632812 189.367188 748.644531 189.800781 748.652344 190.246094 L 748.652344 200.195312 C 748.652344 226.355469 759.742188 241.648438 782.765625 241.648438 L 795.703125 241.679688 L 795.703125 214.089844 C 783.082031 214.578125 776.882812 214.382812 776.882812 197.320312 L 776.882812 112.886719 L 803.191406 112.886719 "/>
</g>
<g clip-path="url(#clip2)" clip-rule="nonzero">
<path style="" d="M 59.753906 219.027344 C 50.703125 216.46875 42.003906 212.972656 34.058594 209.164062 C 30.921875 220.132812 28.523438 232.488281 26.871094 246.226562 C 32.738281 247.535156 45.449219 250.007812 60.777344 250.800781 C 58.964844 239.261719 58.617188 228.621094 59.753906 219.027344 Z M 96.464844 248.757812 C 94.257812 239.875 93.554688 231.242188 94.394531 222.867188 C 85.011719 223.699219 75.464844 222.753906 66.167969 220.65625 C 65.332031 229.785156 66.003906 239.9375 68.121094 251.03125 C 77.214844 251.136719 86.914062 250.542969 96.464844 248.757812 Z M 44.761719 123.128906 C 40.40625 113.875 37.277344 104.222656 35.015625 95.078125 C 20.367188 101.890625 8.757812 109.527344 3.402344 113.277344 C 6.03125 118.363281 12.195312 129.566406 21.242188 141.855469 C 28.984375 134.03125 36.828125 127.777344 44.761719 123.128906 Z M 38.84375 86.558594 C 52.921875 82.238281 65.839844 80.132812 77.546875 80.273438 C 78.292969 70.628906 80.257812 61.171875 82.820312 52.371094 C 65.78125 50.28125 50.042969 50.210938 34.664062 51.066406 C 34.644531 52.003906 34.699219 53.363281 34.804688 54.980469 C 35.109375 61.164062 36.03125 72.925781 38.84375 86.558594 Z M 69.261719 256.652344 C 71.921875 268.285156 76.171875 280.957031 81.902344 294.574219 C 89.457031 292.625 100.558594 289.292969 112.453125 284.136719 C 105.847656 273.867188 101.011719 263.859375 97.960938 254.132812 C 88.265625 256.015625 78.464844 256.695312 69.261719 256.652344 Z M 42.820312 173.695312 C 34.550781 166.832031 27.21875 159 20.957031 151.304688 C 10.570312 163.65625 3.277344 175.480469 0 181.148438 C 4.484375 184.671875 15.769531 193.074219 30.523438 200.949219 C 33.910156 190.566406 38.007812 181.472656 42.820312 173.695312 Z M 205.726562 235.1875 C 204.4375 244.214844 201.515625 252.878906 197.617188 261.003906 C 216.957031 268.460938 242.207031 270.960938 273.214844 268.394531 C 272.644531 254.96875 271.367188 243.003906 269.507812 232.351562 C 245.054688 240.484375 223.746094 241.40625 205.726562 235.1875 Z M 231.40625 206.832031 C 219.484375 207.492188 208.886719 204.199219 200.105469 199.695312 C 204.605469 209.242188 206.824219 219.128906 206.285156 229.582031 C 232.785156 239.34375 267.535156 232.03125 309.707031 207.773438 C 303.566406 195.988281 297.40625 185.789062 291.273438 177.023438 C 271.484375 195.71875 251.457031 205.714844 231.40625 206.832031 Z M 178.914062 289.457031 C 189.554688 295.824219 201.996094 301.699219 216.207031 307.050781 C 221.234375 294.960938 225.054688 283.851562 227.847656 273.632812 C 215.574219 272.242188 204.6875 269.640625 195.105469 265.890625 C 190.445312 274.492188 184.785156 282.421875 178.914062 289.457031 Z M 146.65625 270.726562 C 138.46875 277.132812 129.480469 282.351562 120.664062 286.5625 C 127.125 295.804688 135.054688 305.285156 144.453125 315 C 150.125 310.550781 160.304688 301.988281 170.507812 290.609375 C 161.046875 284.417969 153.074219 277.792969 146.65625 270.726562 Z M 167.472656 248.292969 C 167.421875 248.378906 167.378906 248.464844 167.324219 248.539062 C 162.804688 255.621094 157.140625 261.808594 150.871094 267.242188 C 157.085938 274.0625 164.863281 280.457031 174.117188 286.445312 C 179.855469 279.636719 185.40625 271.984375 189.964844 263.71875 C 181.1875 259.679688 173.6875 254.535156 167.472656 248.292969 Z M 131.378906 246.617188 C 130.902344 245.40625 130.402344 244.1875 129.996094 242.953125 C 129.902344 242.671875 129.859375 242.394531 129.769531 242.113281 C 129.699219 242.15625 129.628906 242.199219 129.554688 242.238281 C 121.445312 247.292969 112.496094 250.714844 103.320312 252.957031 C 106.296875 262.289062 111.027344 271.933594 117.480469 281.863281 C 126.167969 277.773438 135.039062 272.699219 143.0625 266.488281 C 138.007812 260.191406 134.109375 253.566406 131.378906 246.617188 Z M 197.355469 198.226562 C 187.117188 192.441406 179.734375 185.269531 176.257812 181.507812 C 174.925781 181.5625 173.074219 181.554688 171.035156 181.324219 C 170.550781 183.210938 169.921875 185.222656 168.949219 187.515625 C 168.949219 187.515625 166.324219 186.675781 163.328125 184.980469 C 162.972656 184.78125 162.617188 184.566406 162.257812 184.347656 C 162.222656 184.382812 162.183594 184.429688 162.144531 184.46875 C 162.144531 184.472656 162.136719 184.476562 162.136719 184.480469 C 160.9375 185.921875 159.484375 187.4375 157.714844 189.03125 C 157.714844 189.03125 155.15625 186.675781 152.949219 183.277344 C 152.136719 183.664062 151.242188 184.039062 150.296875 184.402344 C 149.226562 184.816406 148.105469 185.222656 146.863281 185.601562 C 146.863281 185.601562 145.5 182.289062 144.949219 178.195312 C 143.722656 178.210938 142.386719 178.148438 140.949219 178.023438 C 140.105469 177.949219 139.316406 177.902344 138.398438 177.777344 C 138.398438 177.777344 138.566406 174.386719 139.710938 170.574219 C 138.066406 169.816406 136.324219 168.898438 134.402344 167.664062 C 134.34375 167.625 134.292969 167.597656 134.234375 167.558594 C 134.234375 167.558594 135.761719 164.65625 138.328125 161.730469 C 137.375 160.601562 136.40625 159.292969 135.417969 157.808594 C 135.136719 157.386719 134.855469 156.976562 134.574219 156.523438 C 134.574219 156.523438 137.273438 154.464844 140.941406 152.886719 C 140.417969 151.015625 139.960938 148.953125 139.65625 146.480469 C 139.65625 146.480469 143.921875 145.570312 148.585938 145.992188 C 149.246094 143.835938 150.214844 141.449219 151.652344 138.746094 C 151.652344 138.746094 154.335938 139.867188 157.265625 141.925781 C 158.328125 134.117188 161.113281 103.296875 144.523438 81.777344 C 139.851562 75.726562 133.933594 70.550781 126.785156 66.246094 C 124.921875 70.941406 123.460938 75.777344 122.574219 80.742188 C 121.695312 85.644531 121.21875 90.660156 121.203125 95.710938 C 138.292969 111.335938 144.144531 141.570312 144.390625 142.742188 C 142.847656 137.597656 136.167969 118.167969 121.605469 103.753906 C 122.777344 115.1875 126.644531 126.496094 134.355469 136.574219 C 125.132812 124.519531 119.015625 112.320312 116.992188 99.574219 C 114.035156 97.164062 110.8125 94.984375 107.296875 93.160156 C 100 89.382812 91.792969 87.1875 82.769531 86.453125 C 82.585938 94.023438 83.277344 101.597656 85.210938 108.894531 C 85.636719 110.472656 86.15625 112.03125 86.660156 113.589844 C 111.164062 117.25 133.527344 142.449219 133.011719 141.832031 C 128.628906 137.921875 110.769531 123.222656 88.910156 119.703125 C 90.558594 123.738281 92.550781 127.644531 94.890625 131.378906 C 96.214844 133.496094 97.660156 135.546875 99.222656 137.527344 C 100.222656 138.789062 101.226562 140.058594 102.324219 141.257812 C 103.082031 141.316406 103.808594 141.410156 104.554688 141.488281 C 117.785156 142.914062 132.410156 149.101562 133.273438 149.449219 C 129.984375 148.464844 120.9375 146.074219 109.675781 145.460938 C 108.605469 145.402344 107.515625 145.375 106.414062 145.351562 L 119.480469 154.515625 C 114.101562 151.703125 109.191406 148.640625 104.734375 145.320312 C 94.761719 145.296875 83.65625 146.9375 73.539062 152.117188 C 80.597656 157.851562 88.625 162.574219 97.457031 165.503906 C 98.453125 165.835938 99.460938 166.152344 100.472656 166.441406 C 112.730469 162.019531 128.597656 160.871094 129.550781 160.792969 C 126.070312 161.421875 116.90625 163.386719 106.644531 167.820312 C 110.429688 168.484375 114.339844 168.804688 118.359375 168.742188 C 113.667969 168.984375 109.082031 169.03125 104.703125 168.675781 C 95.765625 172.765625 86.246094 178.742188 79.101562 187.332031 C 88.460938 189.90625 98.382812 191.007812 108.273438 189.875 C 108.402344 189.859375 108.527344 189.839844 108.652344 189.824219 C 117.570312 178.90625 127.765625 172.371094 130.917969 170.507812 C 128.265625 172.675781 120.800781 179.234375 113.78125 188.992188 C 120.179688 187.699219 126.523438 185.417969 132.636719 181.890625 C 125.816406 185.824219 119.074219 188.902344 112.363281 191.035156 C 107.523438 198.140625 103.109375 206.730469 100.945312 216.425781 C 110.320312 214.746094 119.539062 211.535156 127.839844 206.398438 C 128.65625 205.894531 129.496094 205.453125 130.292969 204.90625 C 133.679688 193.59375 140.914062 182.066406 141.386719 181.292969 C 140.039062 184.097656 136.71875 191.703125 134.433594 201.734375 C 138.824219 198.175781 142.882812 194.039062 146.363281 189.070312 C 142.457031 194.648438 138.328125 199.621094 133.933594 203.949219 C 132.175781 212.582031 131.378906 222.757812 133.230469 233.089844 C 139.886719 228.046875 145.902344 221.988281 150.636719 214.886719 C 150.566406 214.503906 150.496094 214.128906 150.429688 213.753906 C 150.144531 212.195312 149.96875 210.5625 149.78125 208.921875 C 148.71875 198.890625 150.1875 187.136719 150.289062 186.238281 C 150.253906 189.691406 150.488281 199.253906 153.277344 210.53125 C 155.976562 205.71875 158.117188 200.492188 159.5 194.816406 C 158.128906 201.34375 156.335938 207.449219 153.957031 213.035156 C 156.324219 221.597656 160.179688 230.863281 166.527344 239.011719 C 170.992188 230.519531 174.105469 221.183594 174.984375 211.355469 C 167.214844 200.265625 163.679688 189.28125 162.6875 185.769531 L 162.703125 185.769531 C 163.242188 186.960938 164.203125 188.9375 165.589844 191.449219 C 167.75 195.40625 170.9375 200.585938 175.234375 205.996094 C 175.257812 202.023438 174.914062 197.984375 174.136719 193.90625 C 175.195312 198.511719 176.035156 203.050781 176.445312 207.445312 C 182.574219 214.867188 190.734375 222.390625 201.023438 227.351562 C 201.625 217.628906 200.625 207.683594 197.355469 198.226562 Z M 127.023438 210.019531 C 119.011719 216.242188 110.085938 220.40625 99.960938 222.167969 C 99.949219 222.226562 99.933594 222.277344 99.925781 222.335938 C 98.964844 230.460938 99.636719 238.90625 101.8125 247.621094 C 110.769531 245.484375 119.453125 242.195312 127.195312 237.277344 C 127.410156 237.136719 127.625 236.988281 127.839844 236.84375 C 128 236.742188 128.164062 236.636719 128.324219 236.527344 C 126.28125 226.347656 127.257812 216.558594 129.421875 208.066406 C 128.628906 208.734375 127.832031 209.390625 127.023438 210.019531 Z M 134.511719 238.71875 C 134.753906 239.582031 134.941406 240.449219 135.226562 241.316406 C 137.742188 248.9375 141.804688 256.175781 147.292969 263.035156 C 153.210938 257.933594 158.519531 252.15625 162.710938 245.589844 C 163.019531 245.105469 163.308594 244.605469 163.609375 244.113281 C 157.019531 236.089844 153.335938 227.023438 151.359375 218.433594 C 147.1875 226.40625 141.667969 233.222656 134.511719 238.71875 Z M 44.941406 90.808594 C 43.34375 91.246094 41.726562 91.726562 40.101562 92.226562 C 40.140625 92.398438 40.1875 92.570312 40.230469 92.75 C 42.410156 101.792969 45.449219 111.359375 49.679688 120.484375 C 57.371094 116.621094 65.136719 114.265625 72.976562 113.394531 C 73.808594 113.304688 74.640625 113.152344 75.476562 113.097656 C 77.289062 112.96875 79.070312 112.984375 80.832031 113.050781 C 80.691406 112.609375 80.527344 112.183594 80.394531 111.730469 C 80.25 111.238281 80.046875 110.78125 79.910156 110.28125 C 77.8125 102.390625 77.070312 94.261719 77.25 86.171875 C 67.410156 86.046875 56.632812 87.597656 44.941406 90.808594 Z M 192.507812 258.863281 C 196.394531 250.902344 199.257812 242.449219 200.425781 233.695312 C 200.445312 233.5 200.464844 233.300781 200.484375 233.105469 C 190.234375 228.488281 182.507812 221.320312 176.804688 213.84375 C 176.957031 224.324219 174.9375 234.167969 170.261719 243.359375 C 176.265625 249.6875 183.707031 254.839844 192.507812 258.863281 Z M 185.054688 81.945312 C 180.835938 64.03125 168.558594 47.410156 148.5 32.242188 C 141.121094 40.632812 134.164062 50.265625 129.160156 60.78125 C 137.261719 65.515625 143.988281 71.261719 149.238281 78.09375 C 167.398438 101.710938 159.527344 134.316406 157.324219 141.964844 C 157.636719 142.183594 157.953125 142.410156 158.265625 142.65625 C 159.75 141.027344 161.613281 139.324219 163.980469 137.546875 C 163.980469 137.546875 166.257812 140.046875 168.144531 143.546875 C 168.144531 143.546875 168.152344 143.558594 168.152344 143.558594 C 168.453125 143.441406 168.796875 143.335938 169.117188 143.222656 C 170.292969 142.816406 171.546875 142.425781 172.964844 142.070312 C 173.046875 142.050781 173.117188 142.03125 173.195312 142.011719 C 173.265625 141.992188 173.324219 141.984375 173.386719 141.964844 C 173.785156 141.863281 174.144531 141.746094 174.585938 141.65625 C 174.585938 141.65625 175.625 145 175.824219 149.066406 C 176.9375 149.140625 178.105469 149.273438 179.367188 149.480469 C 180.394531 149.644531 181.414062 149.800781 182.566406 150.066406 C 182.566406 150.066406 182.125 153.347656 180.6875 156.992188 C 181.605469 157.53125 182.574219 158.160156 183.566406 158.859375 C 184.246094 159.339844 184.90625 159.765625 185.625 160.324219 C 185.625 160.324219 183.765625 163.21875 180.835938 165.964844 C 181.914062 167.449219 182.984375 169.214844 184.066406 171.28125 C 184.144531 171.421875 184.214844 171.550781 184.285156 171.691406 C 184.285156 171.691406 181.347656 173.550781 177.507812 174.804688 C 177.867188 176.722656 178.15625 178.835938 178.234375 181.351562 C 178.234375 181.351562 177.894531 181.398438 177.375 181.4375 C 177.1875 181.453125 176.984375 181.464844 176.746094 181.480469 C 177.527344 182.097656 178.476562 182.820312 179.527344 183.597656 C 183.285156 186.378906 188.707031 189.96875 195.347656 193.222656 C 193.054688 188.066406 190.046875 183.09375 186.15625 178.445312 C 190.457031 183.585938 194.144531 188.777344 197.164062 194.074219 C 206.765625 198.527344 218.546875 202.070312 231.1875 201.347656 C 259.875 199.722656 288.835938 178.304688 317.355469 137.722656 C 307.996094 130.527344 299.136719 124.445312 290.773438 119.410156 C 280.726562 145 266.734375 162.703125 248.914062 172.261719 C 242.566406 175.664062 236.046875 177.511719 229.695312 178.40625 C 209.902344 181.203125 187.109375 172.089844 186.203125 171.742188 C 192.570312 173.53125 221.96875 180.523438 246.394531 167.394531 C 271.484375 153.90625 288.617188 122.699219 297.394531 74.558594 C 284.15625 71.628906 272.164062 69.773438 261.316406 68.851562 C 262.964844 96.128906 257.757812 117.96875 245.6875 134.097656 C 227.878906 157.910156 189.527344 160.070312 188.601562 160.144531 C 190.523438 159.828125 194.4375 159.078125 199.523438 157.578125 C 211.515625 154.042969 229.675781 146.386719 241.355469 130.746094 C 258.617188 107.621094 260.757812 71.441406 247.816406 23.175781 C 234.746094 26.058594 223.234375 29.382812 213.105469 33.058594 C 227.367188 58.214844 232.464844 81.203125 228.1875 101.703125 C 221.945312 131.527344 193.226562 146.65625 187.445312 149.429688 C 190.625 147.273438 200.226562 140.199219 208.835938 129.230469 C 214.925781 121.46875 220.484375 111.78125 222.824219 100.511719 C 228.664062 72.40625 215.507812 38.90625 183.734375 0.886719 C 177.9375 4.933594 164.867188 14.640625 152.175781 28.175781 C 173.105469 44.105469 185.9375 61.6875 190.414062 80.761719 C 196.605469 107.195312 181.726562 130.546875 175.527344 138.84375 C 175.535156 138.828125 175.546875 138.789062 175.546875 138.789062 C 175.546875 138.789062 174.855469 139.730469 173.996094 140.65625 C 175.777344 137.589844 179.566406 130.433594 182.566406 120.933594 C 186.035156 109.964844 188.375 96.023438 185.054688 81.945312 Z M 60.632812 213.527344 C 62.273438 204.6875 65.246094 196.796875 69.507812 189.945312 C 61.640625 186.871094 54.285156 182.488281 47.472656 177.367188 C 42.886719 184.828125 38.96875 193.59375 35.726562 203.625 C 43.417969 207.4375 51.847656 210.953125 60.632812 213.527344 Z M 95.257812 217.289062 C 96.695312 210.152344 99.394531 203.777344 102.757812 198.210938 C 103.773438 196.363281 104.921875 194.535156 106.179688 192.722656 C 95.996094 195.03125 85.855469 194.960938 75.632812 192.007812 C 75.566406 192.113281 75.488281 192.214844 75.414062 192.324219 C 71.136719 198.964844 68.320312 206.605469 66.898438 215.183594 C 76.246094 217.363281 85.851562 218.316406 95.257812 217.289062 Z M 143.9375 28.921875 C 133.796875 21.773438 121.902344 14.953125 108.195312 8.484375 C 105.792969 12.445312 96.835938 27.851562 90.214844 47.59375 C 103.296875 49.800781 114.667969 53.3125 124.292969 58.121094 C 129.433594 47.304688 136.488281 37.472656 143.9375 28.921875 Z M 50.535156 172.675781 C 57.371094 177.933594 64.800781 182.351562 72.746094 185.285156 C 76.421875 180.648438 80.773438 176.882812 85.429688 173.828125 C 89.203125 171.359375 93.167969 169.347656 97.128906 167.722656 C 96.230469 167.5625 95.339844 167.402344 94.460938 167.214844 C 84.867188 165.164062 76.191406 161.253906 68.511719 155.03125 C 61.761719 159.425781 55.761719 165.289062 50.535156 172.675781 Z M 116.269531 91.703125 C 116.179688 87.785156 116.457031 83.808594 117.183594 79.761719 C 118.183594 74.183594 119.832031 68.777344 121.921875 63.570312 C 112.570312 58.796875 101.390625 55.34375 88.433594 53.191406 C 85.859375 61.832031 83.867188 71.117188 83.097656 80.519531 C 92.976562 81.269531 101.980469 83.660156 109.996094 87.828125 C 112.230469 88.988281 114.308594 90.300781 116.269531 91.703125 Z M 99.476562 141.121094 C 98.242188 140.042969 97.140625 138.882812 95.996094 137.742188 C 90.519531 132.246094 86.152344 126.074219 83.066406 119.054688 C 80.71875 118.910156 78.351562 118.863281 75.945312 119.039062 C 68.015625 119.601562 60.136719 121.878906 52.308594 125.765625 C 56.535156 133.753906 61.769531 141.203125 68.257812 147.441406 C 68.40625 147.59375 68.554688 147.742188 68.710938 147.890625 C 68.808594 147.835938 68.894531 147.773438 68.988281 147.722656 C 78.957031 142.195312 89.652344 140.71875 99.476562 141.121094 Z M 24.765625 146.511719 C 24.824219 146.582031 24.882812 146.65625 24.933594 146.722656 C 30.933594 154.367188 37.980469 162.160156 45.933594 168.960938 C 50.496094 162.492188 55.65625 157.144531 61.347656 152.808594 C 62.203125 152.15625 63.03125 151.464844 63.90625 150.867188 C 63.867188 150.820312 63.824219 150.785156 63.785156 150.742188 C 57.136719 144.191406 51.753906 136.527344 47.414062 128.386719 C 41.054688 132.117188 34.734375 136.988281 28.46875 142.902344 C 27.230469 144.070312 25.996094 145.257812 24.765625 146.511719 "/>
</g>
</g>
</svg>