<?xml version="1.0" encoding="UTF-8"?>
<svg id="a" xmlns="http://www.w3.org/2000/svg" viewBox="0 0 475 475">
  <circle cx="237.5" cy="237.5" r="237.5" style="fill: #fff;"/>
  <path d="M105.2,319.2c-12.1-3.4-23.8-8.1-34.4-13.2-4.2,14.7-7.4,31.2-9.6,49.6,7.8,1.8,24.8,5.1,45.4,6.1-2.5-15.4-3-29.7-1.4-42.5h0Zm49.1,39.8c-2.9-11.9-3.9-23.4-2.8-34.6-12.6,1.1-25.3-.2-37.8-3-1.1,12.2-.2,25.8,2.6,40.6,12.2,.2,25.2-.6,38-3h0ZM85.1,190.9c-5.8-12.4-10-25.3-13-37.5-19.6,9.1-35.2,19.3-42.3,24.3,3.5,6.8,11.7,21.8,23.8,38.3,10.4-10.5,20.9-18.9,31.5-25.1h0Zm-7.9-48.9c18.8-5.8,36.1-8.6,51.8-8.4,1-12.9,3.6-25.6,7.1-37.3-22.8-2.8-43.8-2.9-64.4-1.8,0,1.2,.1,3.1,.2,5.2,.3,8.3,1.5,24.1,5.3,42.3h0Zm40.7,227.6c3.6,15.6,9.2,32.5,16.9,50.7,10.1-2.6,25-7.1,40.9-14-8.8-13.7-15.3-27.1-19.4-40.1-13,2.5-26.1,3.4-38.4,3.4h0Zm-35.4-111c-11.1-9.2-20.9-19.7-29.2-30-13.9,16.5-23.7,32.3-28,39.9,6,4.7,21.1,16,40.8,26.5,4.5-13.9,10-26,16.4-36.4h0Zm217.9,82.2c-1.7,12.1-5.6,23.7-10.9,34.5,25.9,10,59.6,13.3,101.1,9.9-.8-18-2.5-34-5-48.2-32.5,10.9-61.1,12.2-85.2,3.8h0Zm34.4-37.9c-16,.9-30.1-3.5-41.9-9.5,6,12.8,9,26,8.3,40,35.5,13.1,81.9,3.3,138.4-29.2-8.2-15.8-16.5-29.4-24.7-41.1-26.5,24.9-53.3,38.3-80.1,39.8h0Zm-70.2,110.5c14.2,8.5,30.9,16.4,49.9,23.5,6.7-16.2,11.8-31,15.6-44.7-16.4-1.9-31-5.3-43.8-10.4-6.3,11.6-13.9,22.2-21.7,31.6h0Zm-43.2-25c-11,8.6-23,15.6-34.8,21.2,8.6,12.4,19.2,25,31.8,38,7.6-6,21.2-17.4,34.9-32.6-12.6-8.3-23.3-17.1-31.9-26.6h0Zm27.9-30c-.1,.1-.1,.2-.2,.3-6,9.5-13.6,17.8-22,25,8.3,9.1,18.7,17.7,31.1,25.7,7.7-9.1,15.1-19.4,21.2-30.4-11.8-5.4-21.8-12.3-30.1-20.6h0Zm-48.3-2.3c-.6-1.6-1.3-3.2-1.9-4.9-.1-.4-.2-.8-.3-1.1-.1,.1-.2,.1-.3,.2-10.9,6.8-22.8,11.3-35.1,14.3,4,12.5,10.3,25.4,18.9,38.7,11.6-5.5,23.5-12.3,34.2-20.6-6.6-8.4-11.9-17.3-15.5-26.6h0Zm88.3-64.7c-13.7-7.7-23.6-17.3-28.2-22.4-1.8,.1-4.2,.1-7-.2-.6,2.5-1.5,5.2-2.8,8.3,0,0-3.5-1.1-7.5-3.4-.5-.3-.9-.5-1.4-.9,0,0-.1,.1-.1,.2h0c-1.6,1.9-3.5,4-5.9,6.1,0,0-3.4-3.1-6.4-7.7-1.1,.5-2.3,1-3.6,1.5-1.4,.5-2.9,1.1-4.6,1.6,0,0-1.8-4.4-2.6-9.9-1.6,0-3.4-.1-5.4-.2-1.1-.1-2.2-.2-3.4-.3,0,0,.2-4.5,1.8-9.6-2.2-1-4.5-2.2-7.1-3.9-.1,0-.1-.1-.2-.1,0,0,2-3.9,5.5-7.8-1.3-1.5-2.6-3.3-3.9-5.2-.4-.6-.8-1.1-1.1-1.7,0,0,3.6-2.8,8.5-4.9-.7-2.5-1.3-5.3-1.7-8.6,0,0,5.7-1.2,11.9-.6,.9-2.9,2.2-6.1,4.1-9.7,0,0,3.6,1.5,7.5,4.2,1.4-10.4,5.1-51.7-17-80.5-6.2-8.1-14.2-15-23.7-20.8-2.5,6.3-4.4,12.8-5.6,19.4-1.2,6.6-1.8,13.3-1.8,20,22.9,20.9,30.7,61.4,31,62.9-2.1-6.9-11-32.9-30.5-52.2,1.6,15.3,6.8,30.4,17.1,43.9-12.3-16.1-20.5-32.4-23.2-49.5-4-3.2-8.3-6.1-13-8.6-9.8-5.1-20.7-8-32.8-9-.2,10.1,.7,20.3,3.3,30,.6,2.1,1.3,4.2,1.9,6.3,32.8,4.9,62.7,38.6,62,37.8-5.9-5.2-29.8-24.9-59-29.6,2.2,5.4,4.9,10.6,8,15.6,1.8,2.8,3.7,5.6,5.8,8.2,1.3,1.7,2.7,3.4,4.1,5,1,.1,2,.2,3,.3,17.7,1.9,37.3,10.2,38.4,10.6-4.4-1.3-16.5-4.5-31.6-5.3-1.4-.1-2.9-.1-4.4-.1l17.5,12.3c-7.2-3.8-13.8-7.9-19.7-12.3-13.3,0-28.2,2.2-41.7,9.1,9.4,7.7,20.2,14,32,17.9,1.3,.4,2.7,.9,4,1.2,16.4-5.9,37.6-7.4,38.9-7.5-4.6,.8-16.9,3.5-30.6,9.4,5.1,.9,10.3,1.3,15.7,1.2-6.3,.3-12.4,.4-18.3-.1-12,5.5-24.7,13.5-34.2,25,12.5,3.5,25.8,4.9,39,3.4,.2,0,.3,0,.5-.1,11.9-14.6,25.6-23.4,29.8-25.8-3.6,2.9-13.5,11.7-22.9,24.7,8.6-1.7,17.1-4.8,25.2-9.5-9.1,5.3-18.1,9.4-27.1,12.2-6.5,9.5-12.4,21-15.3,34,12.5-2.2,24.9-6.5,36-13.4,1.1-.7,2.2-1.3,3.3-2,4.5-15.1,14.2-30.6,14.8-31.6-1.8,3.8-6.2,13.9-9.3,27.3,5.9-4.8,11.3-10.3,16-16.9-5.2,7.5-10.8,14.1-16.6,19.9-2.4,11.5-3.4,25.2-.9,39,8.9-6.7,16.9-14.9,23.3-24.4-.1-.5-.2-1-.3-1.5-.4-2.1-.6-4.3-.9-6.5-1.4-13.4,.6-29.1,.7-30.4-.1,4.6,.3,17.4,4,32.5,3.6-6.4,6.5-13.4,8.3-21-1.8,8.7-4.2,16.9-7.4,24.4,3.2,11.5,8.3,23.9,16.8,34.8,6-11.4,10.1-23.9,11.3-37-10.4-14.8-15.1-29.5-16.5-34.2h0c.7,1.6,2,4.2,3.9,7.6,2.9,5.3,7.2,12.2,12.9,19.5,0-5.3-.4-10.7-1.5-16.2,1.4,6.2,2.5,12.2,3.1,18.1,8.2,9.9,19.1,20,32.9,26.6,.6-13-.7-26.3-5.1-38.9h0Zm-94.1,15.8c-10.7,8.3-22.7,13.9-36.2,16.2v.2c-1.3,10.9-.4,22.2,2.5,33.8,12-2.9,23.6-7.3,34-13.8,.3-.2,.6-.4,.9-.6,.2-.1,.4-.3,.6-.4-2.7-13.6-1.4-26.7,1.5-38.1-1.2,.9-2.3,1.8-3.3,2.7h0Zm10,38.4c.3,1.1,.6,2.3,1,3.5,3.4,10.2,8.8,19.9,16.1,29.1,7.9-6.8,15-14.6,20.6-23.3,.4-.6,.8-1.3,1.2-2-8.8-10.7-13.7-22.9-16.4-34.4-5.5,10.6-12.9,19.7-22.5,27.1h0ZM85.3,147.7c-2.1,.6-4.3,1.2-6.5,1.9,.1,.2,.1,.5,.2,.7,2.9,12.1,7,24.9,12.6,37.1,10.3-5.2,20.7-8.3,31.2-9.5,1.1-.1,2.2-.3,3.3-.4,2.4-.2,4.8-.1,7.2-.1-.2-.6-.4-1.2-.6-1.8-.2-.7-.5-1.3-.6-1.9-2.8-10.6-3.8-21.4-3.6-32.2-13.1-.2-27.5,1.9-43.2,6.2h0Zm197.5,224.8c5.2-10.6,9-22,10.6-33.7,0-.3,0-.5,.1-.8-13.7-6.2-24-15.8-31.7-25.8,.2,14-2.5,27.2-8.8,39.5,8,8.5,18,15.4,29.8,20.8h0Zm-10-236.7c-5.6-24-22.1-46.2-48.9-66.5-9.9,11.2-19.2,24.1-25.9,38.2,10.8,6.3,19.8,14,26.9,23.2,24.3,31.6,13.8,75.2,10.8,85.4,.4,.3,.8,.6,1.3,.9,2-2.2,4.5-4.5,7.6-6.8,0,0,3,3.3,5.6,8h0c.4-.1,.9-.3,1.3-.4,1.6-.6,3.2-1.1,5.1-1.5,.1,0,.2-.1,.3-.1s.2,0,.2-.1c.5-.1,1-.3,1.6-.4,0,0,1.4,4.5,1.7,9.9,1.5,.1,3,.3,4.7,.6,1.4,.2,2.7,.4,4.3,.8,0,0-.6,4.4-2.5,9.3,1.2,.7,2.5,1.6,3.9,2.5,.9,.6,1.8,1.2,2.8,2,0,0-2.5,3.9-6.4,7.5,1.4,2,2.9,4.4,4.3,7.1,.1,.2,.2,.4,.3,.6,0,0-3.9,2.5-9.1,4.2,.5,2.6,.9,5.4,1,8.8,0,0-.5,.1-1.1,.1h-.8c1,.8,2.3,1.8,3.7,2.8,5,3.7,12.3,8.5,21.2,12.9-3.1-6.9-7.1-13.5-12.3-19.8,5.8,6.9,10.7,13.8,14.7,20.9,12.8,6,28.6,10.7,45.5,9.7,38.4-2.2,77.1-30.8,115.3-85.1-12.5-9.6-24.4-17.8-35.6-24.5-13.4,34.2-32.2,57.9-56,70.7-8.5,4.5-17.2,7-25.7,8.2-26.5,3.8-57-8.5-58.2-8.9,8.5,2.4,47.9,11.7,80.5-5.8,33.6-18.1,56.5-59.8,68.2-124.2-17.7-3.9-33.8-6.4-48.3-7.6,2.2,36.5-4.8,65.7-20.9,87.3-23.8,31.9-75.1,34.8-76.4,34.8,2.6-.4,7.8-1.4,14.6-3.4,16-4.7,40.3-15,56-35.9,23.1-30.9,26-79.3,8.6-143.9-17.5,3.8-32.9,8.3-46.4,13.2,19.1,33.7,25.9,64.4,20.2,91.8-8.4,39.9-46.8,60.1-54.5,63.8,4.2-2.9,17.1-12.3,28.6-27,8.1-10.4,15.6-23.3,18.7-38.4,7.8-37.6-9.8-82.4-52.3-133.3-7.8,5.4-25.2,18.4-42.2,36.5,28,21.3,45.2,44.8,51.2,70.4,8.3,35.4-11.6,66.6-19.9,77.7v-.1s-.9,1.3-2.1,2.5c2.4-4.1,7.5-13.7,11.5-26.4,4.6-14.7,7.7-33.4,3.3-52.2h0ZM106.3,311.9c2.2-11.8,6.2-22.4,11.9-31.5-10.5-4.1-20.4-10-29.5-16.8-6.1,10-11.4,21.7-15.7,35.1,10.3,5,21.6,9.7,33.3,13.2h0Zm46.3,5c1.9-9.5,5.5-18.1,10-25.5,1.4-2.5,2.9-4.9,4.6-7.3-13.6,3.1-27.2,3-40.9-1-.1,.1-.2,.3-.3,.4-5.7,8.9-9.5,19.1-11.4,30.6,12.6,2.9,25.5,4.2,38,2.8h0ZM217.8,64.9c-13.6-9.6-29.5-18.7-47.8-27.3-3.2,5.3-15.2,25.9-24.1,52.3,17.5,2.9,32.7,7.7,45.6,14.1,6.9-14.5,16.3-27.7,26.3-39.1h0Zm-125,192.3c9.2,7,19.1,12.9,29.7,16.9,4.9-6.2,10.7-11.2,17-15.3,5.1-3.3,10.4-6,15.6-8.2-1.2-.2-2.4-.4-3.6-.7-12.8-2.7-24.4-8-34.7-16.3-9,5.9-17,13.7-24,23.6h0Zm88-108.3c-.1-5.2,.2-10.6,1.2-16,1.3-7.5,3.5-14.7,6.3-21.7-12.5-6.4-27.5-11-44.8-13.9-3.4,11.6-6.1,24-7.1,36.6,13.2,1,25.3,4.2,36,9.8,3,1.6,5.7,3.3,8.4,5.2h0Zm-22.5,66.1c-1.6-1.4-3.1-3-4.6-4.5-7.3-7.4-13.2-15.6-17.3-25-3.1-.2-6.3-.3-9.5,0-10.6,.8-21.2,3.8-31.6,9,5.7,10.7,12.7,20.6,21.3,29l.6,.6c.1-.1,.2-.2,.4-.2,13.2-7.5,27.5-9.4,40.7-8.9h0Zm-100,7.2c.1,.1,.2,.2,.2,.3,8,10.2,17.5,20.6,28.1,29.8,6.1-8.7,13-15.8,20.6-21.6,1.1-.9,2.2-1.8,3.4-2.6l-.2-.2c-8.9-8.8-16.1-19-21.9-29.9-8.5,5-17,11.5-25.3,19.4-1.6,1.5-3.2,3.1-4.9,4.8h0Z" style="fill: #3d9b35;"/>
</svg>